<?xml version="1.0" standalone="yes"?>
<svg xmlns="http://www.w3.org/2000/svg" width="256" height="256">
<path style="fill:#060b0a; stroke:none;" d="M0 0L0 256L256 256L256 0L0 0z"/>
<path style="fill:#44646e; stroke:none;" d="M102 74C108.111 68.0129 112.63 62.0756 121 58.9514C139.433 52.071 158.89 63.0866 165 81C165.901 77.7519 164.164 75.2431 163.614 72C163.142 69.2117 163.659 66.6057 162.258 64.0039C149.765 40.8024 100.991 44.219 102 74z"/>
<path style="fill:#abd1dc; stroke:none;" d="M101 111C107.549 108.491 114.065 109 121 109C129.682 109 138.378 108.656 147 109.715C152.952 110.446 157.723 110.327 162 115C165.022 109.236 166.235 102.465 166.829 96C167.814 85.2894 164.095 72.6946 155.907 65.4676C139.309 50.8181 111.281 55.9345 101.634 76C99.1216 81.2263 98.0454 87.2339 98.0046 93C97.9621 99.0188 98.6538 105.441 101 111z"/>
<path style="fill:#6e96a3; stroke:none;" d="M137.667 57.3333C137.222 57.7778 138.278 57.7222 138.333 57.6667C138.778 57.2222 137.722 57.2777 137.667 57.3333M121 58L122 59L121 58M142 58L143 59L142 58M119 59L120 60L119 59M148 60L149 61L148 60M113 62L114 63L113 62M153 63L154 64L153 63M110 64L111 65L110 64M154 64L155 65L154 64M109 65L110 66L109 65M108 66L109 67L108 66M107 67L108 68L107 67M101 68C98.8849 71.7947 97.0032 75.9431 101 79L100 76C101.797 76 101.521 75.9857 103 75C102.405 72.6044 102.009 70.233 101 68M106 68L107 69L106 68M163 68C163.117 70.7301 163.499 73.3142 164 76C165.831 72.8797 166.078 70.2025 163 68M159 69L160 70L159 69z"/>
<path style="fill:#44646e; stroke:none;" d="M99 70L100 71L99 70z"/>
<path style="fill:#6e96a3; stroke:none;" d="M103 72L104 73L103 72M161 72L162 73L161 72z"/>
<path style="fill:#abd1dc; stroke:none;" d="M165 73C165.417 82.1179 168 90.7115 168 100C170.849 93.2116 169.693 78.7335 165 73z"/>
<path style="fill:#44646e; stroke:none;" d="M166 73L167 74L166 73M97.3333 76.6667C97.2778 76.7222 97.2222 77.7778 97.6667 77.3333C97.7223 77.2777 97.7777 76.2223 97.3333 76.6667z"/>
<path style="fill:#abd1dc; stroke:none;" d="M98 76C96.0275 84.0065 96 91.8081 96 100C97.4673 96.5034 96.7966 92.7397 97.1705 89C97.6057 84.6475 99.6393 80.2 98 76z"/>
<path style="fill:#44646e; stroke:none;" d="M100.333 76.6667C100.278 76.7222 100.222 77.7778 100.667 77.3333C100.722 77.2777 100.778 76.2223 100.333 76.6667M167 76L168 77L167 76z"/>
<path style="fill:#6e96a3; stroke:none;" d="M167 77L168 78L167 77z"/>
<path style="fill:#44646e; stroke:none;" d="M99.3333 79.6667C99.2778 79.7222 99.2222 80.7778 99.6667 80.3333C99.7223 80.2777 99.7777 79.2223 99.3333 79.6667M168.333 80.6667C168.278 80.7222 168.222 81.7778 168.667 81.3333C168.722 81.2778 168.778 80.2222 168.333 80.6667M96 81L97 82L96 81z"/>
<path style="fill:#6e96a3; stroke:none;" d="M98.6667 81.3333C98.2222 81.7778 99.2778 81.7222 99.3333 81.6667C99.7778 81.2222 98.7222 81.2778 98.6667 81.3333M165.667 81.3333C165.222 81.7778 166.278 81.7223 166.333 81.6667C166.778 81.2222 165.722 81.2778 165.667 81.3333M96.3333 82.6667C96.2778 82.7222 96.2222 83.7778 96.6667 83.3333C96.7223 83.2777 96.7777 82.2223 96.3333 82.6667z"/>
<path style="fill:#44646e; stroke:none;" d="M98 82L98 85C98.6961 83.4463 98.6961 83.5537 98 82M166 82L166 87C166.83 84.9695 166.83 84.0305 166 82z"/>
<path style="fill:#6e96a3; stroke:none;" d="M168.333 82.6667C168.278 82.7222 168.222 83.7778 168.667 83.3333C168.722 83.2777 168.778 82.2223 168.333 82.6667M98 85C97.0143 86.4785 97 86.2032 97 88C98.2892 86.5574 98.4009 86.7663 98 85z"/>
<path style="fill:#44646e; stroke:none;" d="M95 87L95 97C96.3457 93.793 96.3457 90.207 95 87z"/>
<path style="fill:#6e96a3; stroke:none;" d="M166 87L166 89L168 89L168 87L166 87z"/>
<path style="fill:#44646e; stroke:none;" d="M97 88L97 101C98.5909 97.2087 98.5909 91.7913 97 88M169 88L169 99C170.431 95.59 170.431 91.41 169 88M167 89L167 97C168.161 94.2302 168.161 91.7699 167 89z"/>
<path style="fill:#6e96a3; stroke:none;" d="M167 97C166.542 99.7862 166.631 100.455 169 102C168.52 100.04 168.062 98.6932 167 97M96 100L97 106C98.2247 103.987 98.6453 102.341 99 100L96 100z"/>
<path style="fill:#44646e; stroke:none;" d="M166 101C166.094 103.205 166.356 104.894 167 107C167.552 104.641 167.138 103.146 166 101z"/>
<path style="fill:#abd1dc; stroke:none;" d="M167 102L167 105C167.696 103.446 167.696 103.554 167 102z"/>
<path style="fill:#44646e; stroke:none;" d="M98 103C96.5055 113.687 104.733 119.505 109.487 128C111.316 131.269 111.326 135.37 112 139C116.159 129.089 108.241 123.639 103.63 116C101.139 111.872 100.263 107.162 98 103z"/>
<path style="fill:#6e96a3; stroke:none;" d="M165 104L166 109C166.651 106.766 166.318 105.926 165 104z"/>
<path style="fill:#44646e; stroke:none;" d="M165 107C162.557 115.48 155.152 121.033 152.564 129C150.342 135.841 152.856 144.021 153 151C148.788 141.524 135.139 143 126 143C122.12 143 115.982 141.417 115 146C114.356 143.894 114.094 142.205 114 140C112.448 143.697 113 148.017 113 152L111 152L111 144C98.4659 149.22 87.5133 157.763 75 163C74.4572 166.781 73.0939 170.081 73 174C87.1613 169.913 99.6595 159.229 113 153C100.531 163.246 84.0327 169.666 70 177.576C64.3055 180.785 58.4374 183.049 54 188C53.2757 184.96 53.0262 182.122 53 179C47.6783 184.313 48.0352 192.861 48.0008 200C47.9284 214.999 48 230.001 48 245C50.0851 240.031 49 233.35 49 228C49 215.015 47.276 201.267 52 189C51.7636 193.901 49.7928 204.322 55.1481 206.995C63.5962 211.213 73.0474 209.229 82 210.285C93.2271 211.61 104.698 211 116 211L171 211C180.09 211 188.958 210.812 198 210.086C201.837 209.777 207.195 210.095 210.682 208.262C213.652 206.7 212.864 202.782 213.093 200C213.742 192.148 216.503 186.673 213 179C211.37 182.893 212.485 186.921 213 191C210.721 188.87 208.819 187.299 206 186L207 184C194.855 178.918 183.559 171.575 172 165.309C165.064 161.548 156.798 158.458 152 152C157.768 156.743 164.554 159.74 171 163.427C177.463 167.125 183.871 171.744 191 174C190.863 170.584 190.46 167.39 191 164C182.818 159.224 174.312 154.871 166 150.306C162.446 148.353 157.169 146.456 155.028 142.79C153.478 140.138 153.815 135.956 154.058 133C154.777 124.254 170.016 115.982 165 107z"/>
<path style="fill:#6e96a3; stroke:none;" d="M101 111C103.198 117.945 108.872 121.778 111.972 128C114.254 132.578 113.78 140.87 114 146C114.685 144.752 114.749 144.452 115 143C127.564 143 140.114 142.423 152 147C152 141.501 150.725 134.134 152.938 129C154.902 124.446 162.357 119.691 160.893 114.147C159.606 109.276 150.812 110.082 147 109.576C137.48 108.31 127.594 109 118 109C112.168 109 106.3 108.242 101 111M164 109L165 110L164 109z"/>
<path style="fill:#060b0a; stroke:none;" d="M152 144L152 151C153.059 148.466 153.059 146.534 152 144z"/>
<path style="fill:#abd1dc; stroke:none;" d="M152 152C154.343 156.584 158.644 158.511 163 160.999C171.457 165.83 180.726 172.065 190 175C180.223 164.417 163.313 160.938 152 152M65 179C65.1617 175.461 65.9319 172.369 67 169C56.9669 172.176 54.7747 177.446 53 187C73.0557 176.448 94.0628 166.489 113 154C108.225 153.547 103.138 158.022 99 160.22C87.5947 166.278 76.0167 172.257 65 179z"/>
<path style="fill:#6e96a3; stroke:none;" d="M153 153L154 154L153 153M109 154L110 155L109 154M154 154L155 155L154 154M110 155L111 156L110 155M156 155L157 156L156 155M155 156L156 157L155 156M158 156L159 157L158 156M160 157L161 158L160 157M102 158L103 159L102 158M100 159L101 160L100 159M98 160L99 161L98 160M101 160L102 161L101 160M167 161L168 162L167 161M169 162L170 163L169 162M171 163L172 164L171 163z"/>
<path style="fill:#44646e; stroke:none;" d="M73 164L74 165L73 164z"/>
<path style="fill:#6e96a3; stroke:none;" d="M65 179C72.6761 175.676 72.5522 170.859 76 164C67.9754 166.319 65.1741 170.827 65 179M91 164L92 165L91 164M92 165L93 166L92 165M190 165C190.29 168.809 190.627 172.201 190 176C193.614 177.857 197.144 179.704 201 181L200 169C196.64 167.561 193.574 165.818 190 165M176 166L177 167L176 166z"/>
<path style="fill:#44646e; stroke:none;" d="M194 166L195 167L194 166z"/>
<path style="fill:#6e96a3; stroke:none;" d="M175 167L176 168L175 167z"/>
<path style="fill:#44646e; stroke:none;" d="M196 167L197 168L196 167M66 168L67 169L66 168M198 168L199 169L198 168M64 169L65 170L64 169M200 169L201 170L200 169M62 170L63 171L62 170z"/>
<path style="fill:#abd1dc; stroke:none;" d="M199 170C200.289 174.067 200.964 177.729 201 182C205.107 183.311 208.355 185.753 212 188C210.248 178.562 209.307 173.033 199 170z"/>
<path style="fill:#6e96a3; stroke:none;" d="M201 170L202 171L201 170M61 171L62 172L61 171z"/>
<path style="fill:#44646e; stroke:none;" d="M203 171L204 172L203 171M59 172L60 173L59 172M205 172L206 173L205 172M57 173L58 174L57 173z"/>
<path style="fill:#6e96a3; stroke:none;" d="M206 173L207 174L206 173M56 174L57 175L56 174z"/>
<path style="fill:#44646e; stroke:none;" d="M208 174L209 175L208 174z"/>
<path style="fill:#6e96a3; stroke:none;" d="M55 175L56 176L55 175z"/>
<path style="fill:#44646e; stroke:none;" d="M209 175L210 176L209 175z"/>
<path style="fill:#6e96a3; stroke:none;" d="M54 176L55 177L54 176z"/>
<path style="fill:#44646e; stroke:none;" d="M210 176L211 177L210 176M53 177L54 178L53 177M211 177L212 178L211 177z"/>
<path style="fill:#6e96a3; stroke:none;" d="M53 178L53 185C54.0595 182.466 54.0595 180.534 53 178M211 178L211 186C212.161 183.23 212.161 180.77 211 178M203 182L204 183L203 182M205 183L206 184L205 183M57 184L58 185L57 184M55 185L56 186L55 185z"/>
<path style="fill:#060b0a; stroke:none;" d="M206 185C208.157 187.312 210.395 189.21 213 191C211.338 187.624 209.555 186.22 206 185z"/>
<path style="fill:#6e96a3; stroke:none;" d="M208 185L209 186L208 185M54 186L55 187L54 186M215 186C215.002 189.486 215.01 192.65 216 196C217.299 192.671 216.527 189.177 215 186z"/>
<path style="fill:#060b0a; stroke:none;" d="M54 187L55 188L54 187z"/>
<path style="fill:#6e96a3; stroke:none;" d="M212.333 187.667C212.278 187.722 212.222 188.778 212.667 188.333C212.722 188.278 212.778 187.222 212.333 187.667M48 188L48 193C48.8299 190.97 48.8299 190.03 48 188z"/>
<path style="fill:#060b0a; stroke:none;" d="M53 188L54 189L53 188z"/>
<path style="fill:#44646e; stroke:none;" d="M216 188L216 191C216.696 189.446 216.696 189.554 216 188z"/>
<path style="fill:#060b0a; stroke:none;" d="M213.333 191.667C213.278 191.722 213.222 192.778 213.667 192.333C213.722 192.278 213.778 191.222 213.333 191.667z"/>
<path style="fill:#6e96a3; stroke:none;" d="M51 195L51 247L173 247L202 247C204.98 247 210.853 248.073 212.972 245.397C215.301 242.457 214 235.531 214 232L214 196C212.508 199.555 214.272 205.403 210.682 207.822C207.755 209.794 202.42 209.742 199 209.975C191.277 210.503 183.765 211 176 211L118 211C107.777 211 97.1791 211.799 87 210.83C78.7739 210.047 69.9609 210.916 62 208.694C59.2141 207.917 55.6748 207.601 53.6034 205.347C51.1352 202.662 52.3434 198.202 51 195z"/>
<path style="fill:#44646e; stroke:none;" d="M216 196L215 246C217.796 242.309 217 237.485 217 233L217 209C217 204.74 217.661 199.959 216 196M50 197L50 246C51.7687 241.785 51 236.536 51 232L51 209C51 205.017 51.552 200.699 50 197z"/>
<path style="fill:#abd1dc; stroke:none;" d="M52 245C56.7199 246.981 62.9198 246 68 246L100 246L213 246C208.28 244.019 202.08 245 197 245L165 245L52 245z"/>
<path style="fill:#44646e; stroke:none;" d="M213 246L214 247L213 246z"/>
</svg>
